# xmcd
#
# Track frame offsets: 
#        150
#        15445
#        47152
#        59642
#        71187
#        106632
#        121022
#        134227
#        154190
#        166250
#        192032
#        206535
#        233795
#        244915
#
# Disc length: 3457 seconds
#
# Revision: 2
# Processed by: cddbd v1.5.2PL0 Copyright (c) Steve Scherf et al.
# Submitted via: ExactAudioCopy v1.0b3
#
DISCID=c10d7f0e
DTITLE=Steve Tracy And The Crawling Kingsnakes - Going To Cincinnati
DYEAR=1990
DGENRE=Blues
TTITLE0=Going To Cincinnati
TTITLE1=Going Down To The Graveyard
TTITLE2=Arguin' Blues
TTITLE3=Wish I Had A Nickel
TTITLE4=Sliced To Shreds
TTITLE5=Good Liquor Gonna Carry Me Down
TTITLE6=Jumping All In My Mind
TTITLE7=Too Poor To Die
TTITLE8=Snorin' Woman
TTITLE9=Tremble
TTITLE10=Howling Wind Blues
TTITLE11=Changing Blues
TTITLE12=Jordan River Blues
TTITLE13=Jelly Roll Blues
EXTD=
EXTT0=
EXTT1=
EXTT2=
EXTT3=
EXTT4=
EXTT5=
EXTT6=
EXTT7=
EXTT8=
EXTT9=
EXTT10=
EXTT11=
EXTT12=
EXTT13=
PLAYORDER=
